# xmcd
#
# Track frame offsets:
#	150
#	15446
#	29775
#	40088
#	53552
#	70082
#	84109
#	102191
#	115875
#	135555
#	148913
#	165990
#
# Disc length: 2375 seconds
#
# Revision: 1
# Processed by: cddbd v1.5.2PL0 Copyright (c) Steve Scherf et al.
# Submitted via: EZCDAudioConverter 8.0.6.1
#
DISCID=9309450c
DTITLE=N‰‰svillen Veljekset - Loputon tie
DYEAR=2017
DGENRE=
TTITLE0=Kukkuloitten kaupunkiin
TTITLE1=En tiet‰‰ saa
TTITLE2=Mustan kitaran mies
TTITLE3=Vuodet vieriv‰t vain
TTITLE4=Opin el‰m‰‰ ihmisen
TTITLE5=Is‰is‰t rokkaa
TTITLE6=Villen mukaan l‰htisin
TTITLE7=Loputon tie
TTITLE8=Vieraan silmin
TTITLE9=Reliikki
TTITLE10=Aika meid‰t armahtaa
TTITLE11=Nurmes 1947
EXTD=
EXTT0=
EXTT1=
EXTT2=
EXTT3=
EXTT4=
EXTT5=
EXTT6=
EXTT7=
EXTT8=
EXTT9=
EXTT10=
EXTT11=
PLAYORDER=
